# xmcd
# 
# Track frame offsets:
#     150
#     14275
#     21990
#     30312
#     38182
#     49372
#     60110
#     73157
#     84495
#     95615
#     110117
#     124547
#     135030
#     154377
#     166940
#     180187
#     190585
#     196105
#     204952
#     215797
#     224335
#     236995
#     244597
#     256177
#     268195
#     275577
#     289995
#     299892
#     317800
# 
# Disc length: 4403
# 
# Revision: 2
# Processed by: cddbd v1.5.2PL0 Copyright (c) Steve Scherf et al.
# Submitted via: fre:ac v1.0.17
# 
DISCID=b011311d
DTITLE=Jiří Suchý - Písnièky (1956-1964)
DYEAR=1996
DGENRE=
TTITLE0=Letni den
TTITLE1=Blues pro tebe
TTITLE2=Bila myska v deliriu
TTITLE3=Metamorfozy
TTITLE4=Blues na cestu posledni
TTITLE5=Ja ziju dal
TTITLE6=Blues o mokre slepici
TTITLE7=Barvy - laky
TTITLE8=Male kote
TTITLE9=Maly blby psicek
TTITLE10=Zelvi blues
TTITLE11=Svitani
TTITLE12=Zla nedele
TTITLE13=Blues o stabilite
TTITLE14=Tu krasu nelze popsat slovy
TTITLE15=V kasne
TTITLE16=The World Is Waiting For The Sunrise
TTITLE17=Tralala
TTITLE18=Nechci byt uz nikdy sama
TTITLE19=Pozvani
TTITLE20=Tvidlivej
TTITLE21=Protoze jen ten kdo zpiva
TTITLE22=Vesnicka romance
TTITLE23=JZD boogie
TTITLE24=Zdvorily Woody
TTITLE25=Zastrelilo tele kravu
TTITLE26=Tak jak plyne reky proud
TTITLE27=Blues pro tebe
TTITLE28=Potkala ryba papouska
EXTD=YEAR: 1996
EXTT0=
EXTT1=
EXTT2=
EXTT3=
EXTT4=
EXTT5=
EXTT6=
EXTT7=
EXTT8=
EXTT9=
EXTT10=
EXTT11=
EXTT12=
EXTT13=
EXTT14=
EXTT15=
EXTT16=
EXTT17=
EXTT18=
EXTT19=
EXTT20=
EXTT21=
EXTT22=
EXTT23=
EXTT24=
EXTT25=
EXTT26=
EXTT27=
EXTT28=
PLAYORDER=
